<svg width="92" height="92" viewBox="0 0 92 92" fill="none" xmlns="http://www.w3.org/2000/svg">
<path fill-rule="evenodd" clip-rule="evenodd" d="M19.6713 8.2751C16.3808 10.5759 13.4053 13.2963 10.8222 16.3585C21.3776 15.3786 34.7879 16.9787 50.3571 24.7634C66.9829 33.076 80.3707 33.3571 89.688 31.5599C88.8426 29.0002 87.7781 26.5401 86.5175 24.2015C75.8517 25.3264 62.1782 23.8374 46.2428 15.87C36.1237 10.8104 27.2039 8.72622 19.6713 8.2751ZM80.287 15.3333C71.8642 5.9225 59.6238 0 46 0C41.9991 0 38.1172 0.510847 34.4165 1.47081C39.4286 2.8384 44.7531 4.83917 50.3571 7.64122C62.0241 13.4746 72.0967 15.3529 80.287 15.3333ZM91.6801 40.5446C80.4239 42.7673 64.8802 42.3108 46.2428 32.9921C28.8189 24.2801 14.951 24.3899 5.59798 26.4684C5.11521 26.5756 4.6438 26.6883 4.18377 26.8056C2.95923 29.4687 1.98176 32.2692 1.28042 35.1773C2.02949 34.9772 2.80354 34.787 3.60217 34.6095C14.949 32.088 30.9812 32.1974 50.3571 41.8855C67.7812 50.5975 81.6491 50.4878 91.0023 48.4092C91.3226 48.3382 91.6384 48.2646 91.9489 48.1887C91.983 47.4635 92 46.7337 92 46C92 44.1542 91.8914 42.3338 91.6801 40.5446ZM90.447 57.8963C79.3001 59.8451 64.2091 59.0971 46.2428 50.1142C28.8189 41.4023 14.951 41.512 5.59798 43.5905C3.52188 44.0517 1.65425 44.6136 0.00673901 45.2067C0.0022471 45.4705 0 45.735 0 46C0 71.4051 20.5949 92 46 92C67.2913 92 85.2042 77.5351 90.447 57.8963Z" fill="#3CC0C9"/>
</svg>
